<?xml version="1.0" encoding="UTF-8" standalone="no"?>
<!DOCTYPE svg PUBLIC "-//W3C//DTD SVG 1.1//EN" "http://www.w3.org/Graphics/SVG/1.1/DTD/svg11.dtd">
<!-- Created with Vectornator (http://vectornator.io/) -->
<svg stroke-miterlimit="10" style="fill-rule:nonzero;clip-rule:evenodd;stroke-linecap:round;stroke-linejoin:round;" version="1.1" viewBox="0 0 1024 1024" xml:space="preserve" xmlns="http://www.w3.org/2000/svg" xmlns:xlink="http://www.w3.org/1999/xlink">
<defs/>
<g id="Livello-1">
<g opacity="1">
<path d="M494.95 144.389L494.95 144.389C509.506 144.389 521.306 156.189 521.306 170.745L521.306 852.306C521.306 866.862 509.506 878.662 494.95 878.662L494.95 878.662C480.393 878.662 468.593 866.862 468.593 852.306L468.593 170.745C468.593 156.189 480.393 144.389 494.95 144.389Z" fill="#6c9000" fill-rule="evenodd" opacity="1" stroke="none"/>
<path d="M749.057 459.52L749.057 459.573C749.057 474.115 737.268 485.903 722.727 485.903L267.172 485.903C252.631 485.903 240.843 474.115 240.843 459.573L240.843 459.52C240.843 444.979 252.631 433.19 267.172 433.19L722.727 433.19C737.268 433.19 749.057 444.979 749.057 459.52Z" fill="#6c9000" fill-rule="evenodd" opacity="1" stroke="none"/>
<path d="M240.843 574.968L240.843 574.916C240.843 560.374 252.631 548.586 267.172 548.586L722.727 548.586C737.268 548.586 749.057 560.374 749.057 574.916L749.057 574.968C749.057 589.51 737.268 601.298 722.727 601.298L267.172 601.298C252.631 601.298 240.843 589.51 240.843 574.968Z" fill="#6c9000" fill-rule="evenodd" opacity="1" stroke="none"/>
<path d="M267.225 601.298L267.172 601.298C252.631 601.298 240.843 589.51 240.843 574.968L240.843 459.52C240.843 444.979 252.631 433.19 267.173 433.19L267.225 433.19C281.767 433.19 293.555 444.979 293.555 459.52L293.555 574.968C293.555 589.51 281.767 601.298 267.225 601.298Z" fill="#6c9000" fill-rule="evenodd" opacity="1" stroke="none"/>
<path d="M738.893 479.81L738.852 479.844C727.446 489.098 711.078 487.582 702.293 476.458L474.01 187.378C465.225 176.255 467.351 159.735 478.757 150.481L478.798 150.448C490.204 141.194 506.572 142.71 515.357 153.834L743.64 442.913C752.425 454.037 750.299 470.556 738.893 479.81Z" fill="#6c9000" fill-rule="evenodd" opacity="1" stroke="none"/>
</g>
</g>
<g id="Page-1"/>
</svg>
